<?xml version="1.0" standalone="no"?>
<!DOCTYPE svg PUBLIC "-//W3C//DTD SVG 20010904//EN"
 "http://www.w3.org/TR/2001/REC-SVG-20010904/DTD/svg10.dtd">
<svg version="1.0" xmlns="http://www.w3.org/2000/svg"
 width="535.000000pt" height="535.000000pt" viewBox="0 0 535.000000 535.000000"
 preserveAspectRatio="xMidYMid meet">
<metadata>
Created by potrace 1.11, written by Peter Selinger 2001-2013
</metadata>
<g transform="translate(0.000000,535.000000) scale(0.100000,-0.100000)"
fill="#000000" stroke="none">
<path d="M2525 5223 c-116 -15 -300 -70 -400 -121 -163 -82 -361 -255 -457
-398 -199 -299 -261 -644 -177 -988 95 -390 407 -725 795 -855 192 -64 420
-79 609 -41 55 11 105 22 110 23 6 2 21 7 35 11 64 19 216 87 260 116 87 58
130 89 164 120 205 183 332 391 396 650 30 118 36 340 14 470 -84 499 -456
886 -956 996 -69 15 -323 26 -393 17z"/>
<path d="M2678 2496 c-1 -2 -66 -6 -143 -10 -77 -3 -151 -8 -165 -10 -14 -3
-56 -7 -93 -11 -37 -3 -78 -8 -90 -11 -12 -2 -51 -9 -87 -15 -36 -5 -105 -19
-155 -30 -49 -11 -101 -22 -115 -25 -14 -3 -51 -12 -82 -21 -47 -13 -58 -20
-59 -37 -4 -123 -2 -369 3 -372 4 -3 33 -12 65 -20 214 -56 384 -263 398 -485
4 -64 -2 -84 -32 -115 -16 -15 -17 -49 -19 -353 -1 -334 -3 -362 -36 -401 -16
-19 -64 -50 -77 -50 -5 0 -23 -13 -39 -30 -25 -24 -39 -30 -74 -30 -58 0 -89
18 -111 63 -15 30 -17 43 -8 70 17 49 48 70 111 75 46 3 58 1 74 -17 23 -25
42 -27 50 -4 4 9 7 160 7 335 l0 318 -25 31 c-22 26 -30 55 -26 102 1 15 -37
119 -55 146 -39 63 -132 132 -199 148 -48 11 -134 9 -181 -4 -136 -39 -227
-151 -246 -305 -7 -53 -14 -75 -31 -90 -22 -19 -23 -20 -23 -347 0 -267 3
-331 14 -345 13 -15 16 -15 38 6 47 44 137 25 167 -36 52 -108 -96 -201 -179
-112 -13 14 -29 26 -35 26 -23 0 -71 43 -90 80 -19 37 -20 60 -20 371 l0 331
-26 31 c-24 29 -26 36 -21 102 8 98 13 120 54 205 37 77 143 197 194 220 13 6
40 20 59 30 32 18 89 37 134 46 10 2 20 5 23 7 2 2 2 81 1 175 l-3 171 -145
-54 c-80 -30 -154 -59 -165 -64 -11 -6 -74 -35 -139 -66 -97 -45 -220 -111
-374 -200 -90 -52 -239 -160 -288 -209 -83 -83 -142 -195 -170 -321 -4 -16 -7
-321 -8 -677 l-2 -648 2438 0 2438 0 0 641 c0 610 -3 683 -29 754 -46 125
-143 260 -232 322 -100 71 -270 184 -324 216 -65 38 -319 167 -329 167 -3 0
-25 9 -49 19 -81 38 -239 94 -352 125 -20 6 -20 2 -19 -140 l1 -146 40 -18
c127 -57 189 -210 139 -343 -40 -108 -130 -172 -246 -176 -110 -4 -202 50
-251 146 -33 64 -34 188 -2 249 23 44 107 124 129 124 36 0 42 26 43 182 0 84
-3 158 -7 165 -14 22 -305 89 -492 113 -47 6 -96 13 -110 15 -14 3 -90 7 -170
11 -80 3 -150 7 -157 9 -6 2 -13 2 -15 1z"/>
<path d="M3661 1920 c-73 -17 -122 -75 -129 -154 -4 -47 0 -62 22 -101 45 -76
135 -105 219 -70 41 17 85 66 93 103 3 15 8 33 10 40 7 25 -17 99 -42 125 -48
52 -108 71 -173 57z m82 -82 c34 -18 47 -34 53 -67 15 -73 -52 -134 -122 -111
-42 14 -67 50 -67 96 0 67 77 114 136 82z"/>
</g>
</svg>
